<?xml version="1.0" encoding="UTF-8" standalone="no"?>
<!DOCTYPE svg PUBLIC "-//W3C//DTD SVG 1.1//EN" "http://www.w3.org/Graphics/SVG/1.1/DTD/svg11.dtd">
<svg width="100%" height="100%" viewBox="0 0 423 115" version="1.1" xmlns="http://www.w3.org/2000/svg" xmlns:xlink="http://www.w3.org/1999/xlink" xml:space="preserve" xmlns:serif="http://www.serif.com/" style="fill-rule:evenodd;clip-rule:evenodd;stroke-linejoin:round;stroke-miterlimit:2;">
    <g transform="matrix(1,0,0,1,-266.239,-263.176)">
        <g transform="matrix(0.54734,0,0,0.435429,0,0)">
            <g id="D" transform="matrix(0.291797,0,0,0.366793,290.12,507.875)">
                <g transform="matrix(1,0,0,1,0,-796.1)">
                    <rect x="2788.11" y="1059.28" width="59.524" height="59.524" style="fill:white;"/>
                </g>
                <g transform="matrix(1,0,0,1,265.748,-796.1)">
                    <rect x="2788.11" y="1059.28" width="59.524" height="59.524" style="fill:white;"/>
                </g>
                <g transform="matrix(0.657882,0.657882,-0.707107,0.707107,2102.02,-2226.93)">
                    <path d="M2788.11,1118.8L2724.14,1089.04L2788.11,1059.28L2847.64,1059.28L2847.64,1059.41L2911.61,1089.17L2847.64,1118.93L2847.64,1118.8L2788.11,1118.8Z" style="fill:white;"/>
                </g>
                <g transform="matrix(0.673203,0,0,1,1053.95,-796.1)">
                    <path d="M2788.11,1118.8L2699.69,1089.04L2788.11,1059.28L2847.64,1059.28L2936.05,1089.04L2847.64,1118.8L2788.11,1118.8Z" style="fill:white;"/>
                </g>
                <g transform="matrix(1,0,0,1,265.748,-141.001)">
                    <rect x="2788.11" y="1059.28" width="59.524" height="59.524" style="fill:white;"/>
                </g>
                <g transform="matrix(1,0,0,1,471.972,-362.127)">
                    <rect x="2788.11" y="1059.28" width="59.524" height="59.524" style="fill:white;"/>
                </g>
                <g transform="matrix(1,0,0,0.051811,471.972,556.275)">
                    <path d="M2788.11,1059.28L2817.87,-89.586L2847.64,1059.28L2847.64,1118.8L2817.87,2267.66L2788.11,1118.8L2788.11,1059.28Z" style="fill:white;"/>
                </g>
                <g transform="matrix(1,0,0,1,471.972,-590.906)">
                    <rect x="2788.11" y="1059.28" width="59.524" height="59.524" style="fill:white;"/>
                </g>
                <g transform="matrix(1,0,0,1,0,-141.001)">
                    <rect x="2788.11" y="1059.28" width="59.524" height="59.524" style="fill:white;"/>
                </g>
                <g transform="matrix(1,0,0,7.21686,4.54747e-13,-7239.33)">
                    <path d="M2788.11,1059.28L2817.87,1051.03L2847.64,1059.28L2847.64,1118.8L2817.87,1127.05L2788.11,1118.8L2788.11,1059.28Z" style="fill:white;"/>
                </g>
                <g transform="matrix(0.657882,-0.657882,0.707107,0.707107,566.532,1915.3)">
                    <path d="M2788.11,1118.8L2724.14,1089.04L2788.11,1059.28L2847.64,1059.28L2847.64,1059.41L2911.61,1089.17L2847.64,1118.93L2847.64,1118.8L2788.11,1118.8Z" style="fill:white;"/>
                </g>
                <g transform="matrix(0.661392,0,0,1,1086.87,-141.001)">
                    <path d="M2788.11,1118.8L2698.12,1089.04L2788.11,1059.28L2847.64,1059.28L2937.63,1089.04L2847.64,1118.8L2788.11,1118.8Z" style="fill:white;"/>
                </g>
            </g>
        </g>
        <g transform="matrix(0.54734,0,0,0.435429,0,0)">
            <g id="H" transform="matrix(0.291797,0,0,0.366793,290.12,507.875)">
                <g transform="matrix(0.985398,0,0,0.985398,31.2205,-792.917)">
                    <rect x="2138.07" y="1071.74" width="59.93" height="59.93" style="fill:white;"/>
                </g>
                <g transform="matrix(0.985398,0,0,0.985398,31.2205,-137.349)">
                    <rect x="2138.07" y="1071.74" width="59.93" height="59.93" style="fill:white;"/>
                </g>
                <g transform="matrix(0.985398,0,0,0.985398,503.661,-137.349)">
                    <rect x="2138.07" y="1071.74" width="59.93" height="59.93" style="fill:white;"/>
                </g>
                <g transform="matrix(0.985398,0,0,0.985398,503.661,-792.917)">
                    <rect x="2138.07" y="1071.74" width="59.93" height="59.93" style="fill:white;"/>
                </g>
                <g transform="matrix(4.13895,0,0,0.985398,-6569.34,-465.133)">
                    <path d="M2138.07,1131.67L2123.8,1101.71L2138.07,1071.74L2198,1071.74L2212.27,1101.71L2198,1131.67L2138.07,1131.67Z" style="fill:white;"/>
                </g>
                <g transform="matrix(0.985398,0,0,0.985398,503.661,-465.133)">
                    <rect x="2138.07" y="1071.74" width="59.93" height="59.93" style="fill:white;"/>
                </g>
                <g transform="matrix(0.985398,0,0,0.985398,31.2205,-465.133)">
                    <rect x="2138.07" y="1071.74" width="59.93" height="59.93" style="fill:white;"/>
                </g>
                <g transform="matrix(0.985398,0,0,1.71908,31.2205,-1109.47)">
                    <path d="M2138.07,1071.74L2168.03,1037.39L2198,1071.74L2198,1131.67L2168.03,1166.03L2138.07,1131.67L2138.07,1071.74Z" style="fill:white;"/>
                </g>
                <g transform="matrix(0.985398,0,0,1.73543,31.2205,-1455.24)">
                    <path d="M2138.07,1071.74L2168.03,1037.71L2198,1071.74L2198,1131.67L2168.03,1165.7L2138.07,1131.67L2138.07,1071.74Z" style="fill:white;"/>
                </g>
                <g transform="matrix(0.985398,0,0,1.73257,503.661,-1451.89)">
                    <path d="M2138.07,1071.74L2168.03,1037.66L2198,1071.74L2198,1131.67L2168.03,1165.76L2138.07,1131.67L2138.07,1071.74Z" style="fill:white;"/>
                </g>
                <g transform="matrix(0.985398,0,0,1.73856,503.661,-1131.1)">
                    <path d="M2138.07,1071.74L2168.03,1037.78L2198,1071.74L2198,1131.67L2168.03,1165.64L2138.07,1131.67L2138.07,1071.74Z" style="fill:white;"/>
                </g>
            </g>
        </g>
        <g transform="matrix(0.54734,0,0,0.435429,0,0)">
            <g id="G" transform="matrix(0.291797,0,0,0.366793,290.12,507.875)">
                <g transform="matrix(-1.61336,2.08167e-16,-2.08167e-16,-1.61336,2516.36,2231.68)">
                    <path d="M344.457,1132.6L326.155,1169.21L307.853,1132.6L326.155,1096L344.457,1132.6Z" style="fill:white;"/>
                </g>
                <g transform="matrix(-1.61336,2.08167e-16,-2.08167e-16,-1.61336,2516.36,2663.51)">
                    <path d="M344.457,1137.12L326.155,1173.73L307.853,1137.12L307.853,1132.6L326.155,1096L344.457,1132.6L344.457,1137.12Z" style="fill:white;"/>
                </g>
                <g transform="matrix(1.61336,-1.05877e-17,1.05877e-17,1.61336,991.513,-1422.31)">
                    <path d="M307.853,1132.6L326.155,1096L344.457,1132.6L344.457,1399.94L326.155,1436.54L307.853,1399.94L307.853,1132.6Z" style="fill:white;"/>
                </g>
                <g transform="matrix(1,0,0,1.09504,1771.65,-485.511)">
                    <rect x="188.976" y="1071.46" width="59.055" height="53.93" style="fill:white;"/>
                </g>
                <g transform="matrix(1,0,0,1.09504,1539.08,-485.511)">
                    <rect x="188.976" y="1071.46" width="59.055" height="53.93" style="fill:white;"/>
                </g>
                <g transform="matrix(1,0,0,1.09504,1299.21,-254.546)">
                    <rect x="188.976" y="1071.46" width="59.055" height="53.93" style="fill:white;"/>
                </g>
                <g transform="matrix(1,0,0,1.09504,1299.21,-910.114)">
                    <rect x="188.976" y="1071.46" width="59.055" height="53.93" style="fill:white;"/>
                </g>
                <g transform="matrix(1,0,0,1.09504,1771.65,-686.289)">
                    <rect x="188.976" y="1071.46" width="59.055" height="53.93" style="fill:white;"/>
                </g>
                <g transform="matrix(1,0,0,1.09504,1771.65,-910.114)">
                    <rect x="188.976" y="1071.46" width="59.055" height="53.93" style="fill:white;"/>
                </g>
                <g transform="matrix(1,0,0,1.09504,1771.65,-254.546)">
                    <rect x="188.976" y="1071.46" width="59.055" height="53.93" style="fill:white;"/>
                </g>
                <g transform="matrix(8.82018e-17,-1.61336,1.61336,8.82018e-17,42.4686,1243.51)">
                    <path d="M307.853,1132.6L326.155,1096L344.457,1132.6L344.457,1137.59L326.155,1174.19L307.853,1137.59L307.853,1132.6Z" style="fill:white;"/>
                </g>
                <g transform="matrix(8.82018e-17,-1.61336,1.61336,8.82018e-17,-197.803,1474.47)">
                    <path d="M307.853,1132.6L326.155,1096L344.457,1132.6L344.457,1286.9L326.155,1323.51L307.853,1286.9L307.853,1132.6Z" style="fill:white;"/>
                </g>
                <g transform="matrix(8.82018e-17,-1.61336,1.61336,8.82018e-17,-197.803,818.907)">
                    <path d="M307.853,1132.6L326.155,1096L344.457,1132.6L344.457,1286.9L326.155,1323.51L307.853,1286.9L307.853,1132.6Z" style="fill:white;"/>
                </g>
            </g>
        </g>
        <g transform="matrix(0.54734,0,0,0.435429,0,0)">
            <g id="I" transform="matrix(0.291797,0,0,0.366793,359.048,507.875)">
                <g transform="matrix(-1.61336,2.08167e-16,-2.08167e-16,-1.61336,1630.97,2663.51)">
                    <path d="M344.457,1399.98L326.155,1436.58L307.853,1399.98L307.853,1132.6L326.155,1096L344.457,1132.6L344.457,1399.98Z" style="fill:white;"/>
                </g>
                <g transform="matrix(1,0,0,1.09504,886.264,-254.546)">
                    <rect x="188.976" y="1071.46" width="59.055" height="53.93" style="fill:white;"/>
                </g>
                <g transform="matrix(1,0,0,1.09504,886.264,-910.114)">
                    <rect x="188.976" y="1071.46" width="59.055" height="53.93" style="fill:white;"/>
                </g>
            </g>
        </g>
        <g transform="matrix(0.54734,0,0,0.435429,0,0)">
            <g id="L" transform="matrix(0.291797,0,0,0.366793,431.282,507.875)">
                <g transform="matrix(1.61336,0,0,1.61336,-307.7,-1421.94)">
                    <path d="M307.853,1132.6L326.155,1096L344.457,1132.6L344.457,1399.67L326.155,1436.27L307.853,1399.67L307.853,1132.6Z" style="fill:white;"/>
                </g>
                <g transform="matrix(6.12323e-17,1,-4.6025,2.81822e-16,5509.83,729.768)">
                    <path d="M248.031,1125.39L218.503,1138.22L188.976,1125.39L188.976,1071.46L218.503,1058.62L248.031,1071.46L248.031,1125.39Z" style="fill:white;"/>
                </g>
                <g transform="matrix(1,0,0,1,-5.68434e-14,-181.929)">
                    <rect x="188.976" y="1100.67" width="59.055" height="59.055" style="fill:white;"/>
                </g>
                <g transform="matrix(1,0,0,1,472.441,-181.929)">
                    <rect x="188.976" y="1100.67" width="59.055" height="59.055" style="fill:white;"/>
                </g>
                <g transform="matrix(1,0,0,1,2.84217e-14,-837.497)">
                    <rect x="188.976" y="1100.67" width="59.055" height="59.055" style="fill:white;"/>
                </g>
            </g>
        </g>
    </g>
</svg>
